<?xml version="1.0" encoding="UTF-8"?>
<svg id="Layer_1" xmlns="http://www.w3.org/2000/svg" xmlns:xlink="http://www.w3.org/1999/xlink" viewBox="125 36 345 435">
  <defs>
    <style>
      .cls-2 { fill: url(#gold); }
      .cls-3 { fill: url(#gold-3); }
      .cls-6 { fill: url(#gold-2); }
    </style>
    <linearGradient id="gold" x1="192.78" y1="253.84" x2="401.89" y2="253.84" gradientUnits="userSpaceOnUse">
      <stop offset=".02" stop-color="#cc962b"/>
      <stop offset=".07" stop-color="#b38228"/>
      <stop offset=".15" stop-color="#855d24"/>
      <stop offset=".17" stop-color="#9a712b"/>
      <stop offset=".21" stop-color="#bb8f35"/>
      <stop offset=".24" stop-color="#d2a53d"/>
      <stop offset=".27" stop-color="#e1b242"/>
      <stop offset=".3" stop-color="#e6b744"/>
      <stop offset=".34" stop-color="#f0cc59"/>
      <stop offset=".4" stop-color="#ffeb79"/>
      <stop offset=".63" stop-color="#e6b744"/>
      <stop offset=".75" stop-color="#cc962b"/>
      <stop offset=".85" stop-color="#ffe172"/>
      <stop offset="1" stop-color="#f0b836"/>
    </linearGradient>
    <linearGradient id="gold-2" data-name="gold" x1="297.61" y1="253.94" x2="404.77" y2="253.94" xlink:href="#gold"/>
    <linearGradient id="gold-3" data-name="gold" x1="190.45" y1="253.85" x2="297.61" y2="253.85" xlink:href="#gold"/>
  </defs>
  <g>
    <path class="cls-2" d="M387.72,146.68c-1.83,4.19-3.97,11.28-14.89,26.3-2.39,3.76-6.27,9.04-10.88,14.41-3.41,3.35-7.04,7.61-10.86,16.63-1.29,2.46-2.1,4.66-2.91.63l-27.5-140.82c-.62-4.59-1.7-8.09,4.31-11.89,5.79-3.66,7.38-3.19,12.17-7.56l-61.55-.12c1.91,3.2,12.15,7.56,18.04,13.2,1.61,2,1.88,2.86,2.21,6.75l8.59,55.13c.87,5.8,1.22,9.21-1.16,15.21-6,10.44-13.91,24.89-21.85,33.4-1.42,1.52-2.83,3.05-4.15,4.66l-21.65,26.21c-15.46,17.53-25.72,44.5-23.22,77.28,0,0,.75,14.25-4.23,22.91-.28.29-12.45,19.55-22.11,32.04-2.15,3.1-9.66,10.1-13.31,15.65l.59,37.59c2.27-14.68,8.01-25.36,13.28-33.97.85-1.38,1.8-2.71,2.83-3.96,5.87-7.06,11.4-13.04,16.22-21.08.88-1.46,1.82-2.88,2.74-4.31,4.11-6.38,7.46-12.82,12.11-22.03.58-1.18,1.15-1.63,1.51.07,2.5,16.67,4.71,37.36,7.11,47.9,3.52,18.76,16.8,88.67,21.49,100.55.64,2.3-1.15,3.9-2.75,5.18-1.63,1.5-12.05,8.79-16.3,10.52l61.67.24c-6.09-3.15-13.47-6.43-17.41-16.71-.73-2.29-10.31-45.49-10.93-52.77-.27-2.23-1.23-9.99,3.25-18.96,3.26-9.8,17.52-31.51,26.73-41.74,9.94-9.87,27.83-32.29,33.38-45.87.37-.91.79-1.78,1.22-2.66,7.97-16.37,8.2-32.37,6.28-48.52-.15-11.95,2.33-19.65,10.75-32.37,4.5-7.46,10.05-13.82,15.63-18.87,10.46-11.56,16.67-23.21,19.69-40.26v-32.22l-14.17,34.23ZM311.24,308.85c-8.61,9.5-13.45,18.37-16.62,25.39l-12.46,28.78-7.4-26.37c-4.43-17.22-11.71-56.56-13.44-68.19-.3-2.01-.64-4.01-.98-6.02-4.59-27.28,7.28-42.2,12.7-50.88.91-1.44,1.85-2.86,2.87-4.23,14.99-19.96,29.57-49.12,33.18-64.66,5.09,19.52,18.92,77.09,19.31,89.41,5.62,41.78,6.21,44.44-17.16,76.77Z"/>
    <g>
      <path class="cls-6" d="M297.61,44.19c8.77-.26,17.55-.4,26.32-.58,8.77-.2,17.55-.25,26.32-.38,8.77-.1,17.55-.26,26.32-.3l26.32-.16h1.61s0,1.61,0,1.61c.07,17.46.12,34.92-.06,52.38l-.7,52.38c-.24,17.46-.35,34.92-.25,52.38l.13,26.19.29,26.19c.53,34.92.7,69.84.86,104.76.21,34.92.14,69.84-.19,104.76l-.02,1.71h-1.68s-26.32-.24-26.32-.24c-8.77-.05-17.55-.22-26.32-.33-8.77-.14-17.55-.22-26.32-.4l-26.32-.54v-.37l26.32-.54c8.77-.19,17.55-.26,26.32-.4,8.77-.11,17.55-.28,26.32-.33l26.32-.23-1.69,1.69c-.34-34.92-.4-69.84-.19-104.76.16-34.92.33-69.84.86-104.76l.29-26.19.13-26.19c.1-17.46-.02-34.92-.25-52.38l-.7-52.38c-.18-17.46-.12-34.92-.06-52.38l1.61,1.61-26.32-.16c-8.77-.04-17.55-.2-26.32-.3-8.77-.13-17.55-.18-26.32-.38-8.77-.19-17.55-.32-26.32-.58v-.37Z"/>
      <path class="cls-3" d="M297.61,463.6c-8.77.26-17.55.4-26.32.58-8.77.2-17.55.25-26.32.38-8.77.1-17.55.26-26.32.3l-26.32.16h-1.61s0-1.61,0-1.61c-.07-17.46-.12-34.92.06-52.38l.7-52.38c.24-17.46.35-34.92.25-52.38l-.13-26.19-.29-26.19c-.53-34.92-.7-69.84-.86-104.76-.21-34.92-.14-69.84.19-104.76l.02-1.71h1.68s26.32.24,26.32.24c8.77.05,17.55.22,26.32.33,8.77.14,17.55.22,26.32.4l26.32.54v.37l-26.32.54c-8.77.19-17.55.26-26.32.4-8.77.11-17.55.28-26.32.33l-26.32.23,1.69-1.69c.34,34.92.4,69.84.19,104.76-.16,34.92-.33,69.84-.86,104.76l-.29,26.19-.13,26.19c-.1,17.46.02,34.92.25,52.38l.7,52.38c.18,17.46.12,34.92.06,52.38l-1.61-1.61,26.32.16c8.77.04,17.55.2,26.32.3,8.77.13,17.55.18,26.32.38,8.77.19,17.55.32,26.32.58v.37Z"/>
    </g>
  </g>
</svg>
